<svg width="900" height="300" viewBox="0 0 900 300" xmlns="http://www.w3.org/2000/svg" role="img" aria-label="Wharton Blockchain and Digital Asset Project logo">
  <defs>
    <linearGradient id="bdapBlue" x1="0" y1="0" x2="1" y2="1">
      <stop offset="0%" stop-color="#1d4ed8" />
      <stop offset="100%" stop-color="#38bdf8" />
    </linearGradient>
    <linearGradient id="bdapDark" x1="0" y1="0" x2="0" y2="1">
      <stop offset="0%" stop-color="#0f172a" />
      <stop offset="100%" stop-color="#1f2937" />
    </linearGradient>
  </defs>
  <rect width="900" height="300" rx="36" fill="url(#bdapDark)" />
  <g transform="translate(80 70)">
    <rect width="120" height="160" rx="16" fill="rgba(56,189,248,0.08)" stroke="#38bdf8" stroke-width="4" />
    <g transform="translate(20 24)" fill="#38bdf8">
      <circle cx="0" cy="0" r="8" />
      <circle cx="30" cy="0" r="8" />
      <circle cx="60" cy="0" r="8" />
      <circle cx="0" cy="30" r="8" />
      <circle cx="30" cy="30" r="8" />
      <circle cx="60" cy="30" r="8" />
      <circle cx="0" cy="60" r="8" />
      <circle cx="30" cy="60" r="8" />
      <circle cx="60" cy="60" r="8" />
      <circle cx="0" cy="90" r="8" />
      <circle cx="30" cy="90" r="8" />
      <circle cx="60" cy="90" r="8" />
    </g>
  </g>
  <text x="250" y="140" font-family="'Inter','Helvetica',sans-serif" font-size="120" font-weight="600" fill="url(#bdapBlue)">
    BDAP
  </text>
  <text x="250" y="200" font-family="'Inter','Helvetica',sans-serif" font-size="34" letter-spacing="4" fill="#f8fafc">
    BLOCKCHAIN AND DIGITAL ASSET PROJECT
  </text>
</svg>
