<svg width="1400" height="360" viewBox="0 0 1400 360" xmlns="http://www.w3.org/2000/svg" role="img" aria-label="Wharton Accountable AI Lab banner">
  <defs>
    <linearGradient id="bg" x1="0" y1="0" x2="1" y2="1">
      <stop offset="0%" stop-color="#0f1c64" />
      <stop offset="100%" stop-color="#1d4ed8" />
    </linearGradient>
  </defs>
  <rect width="1400" height="360" fill="url(#bg)" />
  <g stroke="#2563eb" stroke-width="4" opacity="0.25">
    <polyline points="50,310 180,200 320,260 470,150 620,210 780,120 960,190 1180,90 1350,180" fill="none" />
    <polyline points="60,170 190,80 360,150 480,70 720,200 880,110 1040,220 1240,140 1380,230" fill="none" stroke="#60a5fa" />
  </g>
  <g fill="#60a5fa" opacity="0.3">
    <circle cx="230" cy="120" r="8" />
    <circle cx="450" cy="80" r="10" />
    <circle cx="680" cy="230" r="10" />
    <circle cx="920" cy="150" r="8" />
    <circle cx="1180" cy="220" r="12" />
  </g>
  <text x="80" y="210" font-family="'Inter','Helvetica',sans-serif" font-size="120" font-weight="700" fill="#ffffff">
    Wharton Accountable AI Lab
  </text>
  <text x="84" y="270" font-family="'Inter','Helvetica',sans-serif" font-size="36" fill="#bfdbfe">
    Research, governance frameworks, and executive education for responsible AI
  </text>
</svg>
